<svg width="296" height="231" viewBox="0 0 296 231" fill="none" xmlns="http://www.w3.org/2000/svg">
<path d="M92.7501 0.485145C90.2414 -0.702311 87.267 0.364087 86.0811 2.87618L83.0233 9.35372C81.8374 11.8658 82.9024 14.8441 85.4111 16.0316L144.927 44.2024C147.436 45.3899 150.41 44.3235 151.596 41.8114L154.654 35.3338C155.84 32.8217 154.775 29.8434 152.266 28.6559L92.7501 0.485145ZM86.7642 22.2197L48.8457 102.544L100.599 127.04L138.517 46.7159L86.7642 22.2197V22.2197ZM135.46 80.9327C132.613 79.5848 129.236 80.7954 127.89 83.6469L119.906 100.559C118.56 103.411 119.769 106.792 122.617 108.139L279.887 182.58C282.735 183.928 286.111 182.717 287.457 179.866L295.441 162.954C296.787 160.102 295.578 156.721 292.73 155.373L135.46 80.9327ZM43.2115 105.425C40.7028 104.238 37.7284 105.304 36.5425 107.816L33.4845 114.294C32.2986 116.806 33.3636 119.784 35.8723 120.972L95.3885 149.143C97.8972 150.33 100.872 149.264 102.057 146.752L105.116 140.274C106.301 137.762 105.236 134.783 102.728 133.596L43.2115 105.425V105.425Z" fill="#233D4D"/>
<path d="M29.0467 183.328C25.1156 183.328 21.9507 186.497 21.9507 190.433V200.584C21.9507 200.806 21.9623 201.024 21.982 201.241H14.7656C10.0252 201.241 8.21892 205.51 6.20856 209.809L0.484183 222.049C-1.52618 226.348 4.30082 230.617 9.04127 230.617H155.072C159.813 230.617 166.024 226.146 163.629 222.049L156.474 209.809C154.079 205.712 152.657 201.241 147.917 201.241H140.701C140.72 201.024 140.731 200.806 140.731 200.584V190.433C140.731 186.497 137.567 183.328 133.636 183.328H29.0467Z" fill="#233D4D"/>
</svg>
