<?xml version="1.0" encoding="UTF-8"?>
<svg xmlns="http://www.w3.org/2000/svg" xmlns:xlink="http://www.w3.org/1999/xlink" viewBox="0 0 32 32" width="32px" height="32px">
<g id="surface51711469">
<path style=" stroke:none;fill-rule:nonzero;fill:rgb(100%,100%,100%);fill-opacity:1;" d="M 3.234375 13.226562 C 3.328125 18.734375 7.894531 23.144531 13.40625 23.046875 C 15.800781 23.007812 17.980469 22.128906 19.679688 20.6875 L 27.785156 28.515625 L 29.199219 27.054688 L 21.089844 19.226562 C 22.46875 17.480469 23.273438 15.269531 23.230469 12.875 C 23.132812 7.363281 18.566406 2.957031 13.058594 3.050781 C 7.546875 3.148438 3.136719 7.714844 3.234375 13.226562 Z M 5.234375 13.191406 C 5.15625 8.761719 8.664062 5.128906 13.09375 5.050781 C 17.519531 4.972656 21.152344 8.480469 21.230469 12.910156 C 21.308594 17.339844 17.800781 20.972656 13.371094 21.050781 C 8.941406 21.125 5.308594 17.617188 5.234375 13.191406 Z M 5.234375 13.191406 "/>
</g>
</svg>
