<svg width="330" height="258" viewBox="0 0 330 258" fill="none" xmlns="http://www.w3.org/2000/svg">
<g clip-path="url(#clip0_1_4)">
<path d="M103.404 0.540871C100.607 -0.782982 97.2909 0.405908 95.9688 3.20655L92.5598 10.4281C91.2377 13.2288 92.425 16.5492 95.2219 17.8731L161.574 49.2797C164.371 50.6036 167.687 49.4147 169.009 46.6141L172.418 39.3924C173.741 36.5918 172.553 33.2714 169.756 31.9475L103.404 0.540871ZM96.7304 24.772L54.4564 114.323L112.154 141.632L154.428 52.0819L96.7304 24.772ZM151.02 90.229C147.846 88.7263 144.081 90.0759 142.58 93.255L133.679 112.11C132.178 115.289 133.526 119.059 136.701 120.56L312.036 203.552C315.211 205.055 318.975 203.705 320.476 200.526L329.377 181.672C330.877 178.492 329.53 174.723 326.354 173.22L151.02 90.229ZM48.175 117.535C45.3781 116.211 42.0621 117.4 40.74 120.2L37.3307 127.422C36.0086 130.223 37.1959 133.543 39.9928 134.867L106.345 166.274C109.142 167.598 112.459 166.409 113.78 163.609L117.19 156.387C118.511 153.586 117.324 150.265 114.528 148.941L48.175 117.535Z" fill="#233D4D"/>
<path d="M32.3832 204.386C28.0005 204.386 24.4721 207.919 24.4721 212.307V223.624C24.4721 223.872 24.485 224.115 24.507 224.357H16.4617C11.1767 224.357 9.16299 229.116 6.92171 233.909L0.539801 247.555C-1.70148 252.347 4.79484 257.107 10.0798 257.107H172.884C178.17 257.107 185.094 252.122 182.424 247.555L174.447 233.909C171.777 229.341 170.192 224.357 164.907 224.357H156.863C156.884 224.115 156.896 223.872 156.896 223.624V212.307C156.896 207.919 153.369 204.386 148.986 204.386H32.3832Z" fill="#233D4D"/>
</g>
<defs>
<clipPath id="clip0_1_4">
<rect width="330" height="257.534" fill="white"/>
</clipPath>
</defs>
</svg>
